<mxfile host="Electron" agent="Mozilla/5.0 (Windows NT 10.0; Win64; x64) AppleWebKit/537.36 (KHTML, like Gecko) draw.io/24.7.8 Chrome/128.0.6613.36 Electron/32.0.1 Safari/537.36" version="24.7.8">
  <diagram name="Page-1" id="c7sGaXxUWJ4-yfdD3z1N">
    <mxGraphModel dx="819" dy="547" grid="1" gridSize="10" guides="1" tooltips="1" connect="1" arrows="1" fold="1" page="1" pageScale="1" pageWidth="850" pageHeight="1100" math="0" shadow="0">
      <root>
        <mxCell id="0" />
        <mxCell id="1" parent="0" />
        <mxCell id="2CvPCDizbOP6xjfld4v2-1" value="" style="triangle;whiteSpace=wrap;html=1;rotation=-90;" vertex="1" parent="1">
          <mxGeometry x="322.26" y="40.33" width="236.61" height="321.18" as="geometry" />
        </mxCell>
        <mxCell id="2CvPCDizbOP6xjfld4v2-3" value="&lt;font style=&quot;font-size: 24px;&quot;&gt;Time&lt;/font&gt;" style="text;html=1;align=center;verticalAlign=middle;whiteSpace=wrap;rounded=0;" vertex="1" parent="1">
          <mxGeometry x="410.57" y="340" width="60" height="30" as="geometry" />
        </mxCell>
        <mxCell id="2CvPCDizbOP6xjfld4v2-5" value="&lt;font style=&quot;font-size: 24px;&quot;&gt;Quality&lt;/font&gt;" style="text;html=1;align=center;verticalAlign=middle;whiteSpace=wrap;rounded=0;" vertex="1" parent="1">
          <mxGeometry x="520" y="155" width="100" height="40" as="geometry" />
        </mxCell>
        <mxCell id="2CvPCDizbOP6xjfld4v2-6" value="&lt;font style=&quot;font-size: 24px;&quot;&gt;Cost&lt;/font&gt;" style="text;html=1;align=center;verticalAlign=middle;whiteSpace=wrap;rounded=0;" vertex="1" parent="1">
          <mxGeometry x="280" y="160" width="70" height="30" as="geometry" />
        </mxCell>
        <mxCell id="2CvPCDizbOP6xjfld4v2-14" value="" style="verticalLabelPosition=bottom;verticalAlign=top;html=1;shape=mxgraph.basic.4_point_star_2;dx=0.8;" vertex="1" parent="1">
          <mxGeometry x="425" y="210" width="30" height="30" as="geometry" />
        </mxCell>
        <mxCell id="2CvPCDizbOP6xjfld4v2-15" value="" style="endArrow=none;html=1;rounded=0;entryX=0.4;entryY=0.4;entryDx=0;entryDy=0;entryPerimeter=0;exitX=0.5;exitY=0;exitDx=0;exitDy=0;" edge="1" parent="1" source="2CvPCDizbOP6xjfld4v2-1" target="2CvPCDizbOP6xjfld4v2-14">
          <mxGeometry width="50" height="50" relative="1" as="geometry">
            <mxPoint x="240" y="120" as="sourcePoint" />
            <mxPoint x="290" y="70" as="targetPoint" />
          </mxGeometry>
        </mxCell>
        <mxCell id="2CvPCDizbOP6xjfld4v2-16" value="" style="endArrow=none;html=1;rounded=0;exitX=0.6;exitY=0.4;exitDx=0;exitDy=0;exitPerimeter=0;entryX=0.5;entryY=1;entryDx=0;entryDy=0;" edge="1" parent="1" source="2CvPCDizbOP6xjfld4v2-14" target="2CvPCDizbOP6xjfld4v2-1">
          <mxGeometry width="50" height="50" relative="1" as="geometry">
            <mxPoint x="640" y="160" as="sourcePoint" />
            <mxPoint x="690" y="110" as="targetPoint" />
          </mxGeometry>
        </mxCell>
        <mxCell id="2CvPCDizbOP6xjfld4v2-17" value="" style="endArrow=none;html=1;rounded=0;entryX=0.5;entryY=1;entryDx=0;entryDy=0;entryPerimeter=0;exitX=0;exitY=0.5;exitDx=0;exitDy=0;" edge="1" parent="1" source="2CvPCDizbOP6xjfld4v2-1" target="2CvPCDizbOP6xjfld4v2-14">
          <mxGeometry width="50" height="50" relative="1" as="geometry">
            <mxPoint x="410" y="320" as="sourcePoint" />
            <mxPoint x="460" y="270" as="targetPoint" />
          </mxGeometry>
        </mxCell>
      </root>
    </mxGraphModel>
  </diagram>
</mxfile>
